<svg width="171" height="92" viewBox="0 0 171 92" fill="none" xmlns="http://www.w3.org/2000/svg">
<g clip-path="url(#clip0_214_82)">
<path d="M168.229 47.6979C168.81 47.2669 169.217 46.6913 169.512 46.0406C169.69 45.5932 169.644 45.1516 169.651 44.6811C169.555 43.9514 169.232 43.3459 168.794 42.7572C168.206 41.8824 167.3 41.4539 166.376 41.017C164.746 40.2611 162.961 39.9066 161.203 39.557C159.491 39.2645 157.778 39.0432 156.082 38.6806C154.933 38.4749 153.702 38.3473 152.687 37.7182C152.218 37.4275 151.206 36.4948 150.816 36.1485C149.608 34.8825 150.279 35.4096 148.816 34.5497L148.924 34.3676C150.371 35.2177 149.59 34.9226 151.273 35.2373C151.66 35.3054 152.048 35.3735 152.435 35.4417C152.777 35.476 153.122 35.4908 153.462 35.5447C154.529 35.7142 155.553 36.1239 156.612 36.3332C158.297 36.7276 159.958 37.1844 161.647 37.5712C163.551 38.0338 165.451 38.5289 167.231 39.3511C168.395 39.9778 169.455 40.745 170.144 41.8983C170.644 42.7759 171.169 43.7518 170.948 44.7912C170.864 45.3924 170.645 46.0589 170.194 46.4752C169.69 47.0722 169.131 47.5853 168.467 48.0057L168.229 47.6979Z" fill="#6E777A"/>
<path d="M150.398 34.7646C150.303 33.5832 150.224 32.3999 150.175 31.2156C150.104 30.195 150.078 29.1729 150.015 28.1518C149.978 27.0199 149.843 25.9104 149.692 24.7915C149.589 23.7597 149.168 22.88 148.57 22.0487C147.978 21.111 147.246 20.3294 146.386 19.635C145.408 18.9713 144.315 18.7296 143.163 18.5863C141.504 18.3495 140.707 18.4776 139.356 19.4474C138.334 20.4153 137.785 21.712 137.061 22.8891C136.579 23.6732 136.073 24.4423 135.582 25.2204C134.84 26.9454 135.26 26.1071 134.321 27.7354L134.136 27.6301C135.063 26.0279 134.648 26.8549 135.38 25.1486C135.408 24.9252 135.705 22.5516 135.751 22.3362C136.111 20.6532 136.99 19.1116 138.27 17.9593C138.563 17.7463 138.831 17.4927 139.15 17.3202C140.442 16.6215 142.019 16.7562 143.422 16.8818C144.828 17.1252 146.247 17.5019 147.349 18.4552C148.351 19.2661 148.977 20.256 149.655 21.336C150.291 22.3646 150.753 23.4552 150.787 24.6818C150.868 25.8381 150.858 27.0033 150.777 28.1596C150.694 29.1797 150.625 30.2005 150.511 31.2177C150.447 32.3956 150.484 33.5702 150.609 34.744L150.398 34.7646Z" fill="#6E777A"/>
<path d="M134.712 24.2421C133.644 25.5961 132.51 26.8956 131.362 28.1834C130.341 29.402 129.384 30.669 128.168 31.7046C127.444 32.2764 126.487 32.831 125.514 32.7636C125.297 32.7485 125.091 32.6582 124.88 32.6055C124.405 32.2579 124.058 32.0952 123.801 31.5214C123.301 30.4048 123.403 28.401 123.368 27.1882C123.419 24.8504 123.768 22.5368 124.296 20.2616C124.688 18.5082 124.891 16.7171 125.383 14.9867C126.101 13.0485 127.019 11.86 128.654 10.603C129.481 9.87628 130.656 9.75572 131.48 9.03352C131.63 8.90251 131.739 8.73224 131.869 8.5816L132.03 8.71917C131.158 9.73235 130.87 11.102 129.822 11.9849C128.73 12.9937 127.627 14.0352 127.295 15.5428C126.783 17.2248 126.337 18.92 125.949 20.6344C125.467 22.7963 124.81 24.9425 124.863 27.1842C124.83 28.5056 124.753 30.0289 125.344 31.2496C126.107 31.6987 126.949 31.4229 127.709 31.0818C129.039 30.2681 130.144 29.1776 131.203 28.0431C132.35 26.7558 133.484 25.4567 134.552 24.1033L134.712 24.2421Z" fill="#6E777A"/>
<path d="M129.287 14.2547C129.6 13.1599 129.883 12.0584 130.197 10.9637C130.54 9.91984 130.908 8.86453 131.06 7.77295C131.226 6.84546 131.088 6.17873 130.335 5.58932C128.83 4.36351 127.817 4.20821 125.902 4.35285C123.876 4.43913 122.143 5.58361 120.239 6.10241C119.912 6.19133 119.573 6.22471 119.24 6.28586C118.371 6.27205 117.665 6.52817 116.923 6.93312L116.821 6.74769C117.565 6.34155 118.199 5.84742 118.772 5.213C119.056 5.007 119.32 4.76909 119.626 4.595C121.368 3.6018 123.899 3.21569 125.848 2.8382C126.298 2.83748 126.749 2.80322 127.198 2.83603C128.766 2.95075 130.195 3.63567 131.351 4.67934C132.289 5.99297 132.436 6.41109 132.077 8.00783C131.728 9.10606 131.157 10.0817 130.726 11.1422C130.308 12.1969 129.885 13.2515 129.545 14.3341L129.287 14.2547Z" fill="#6E777A"/>
<path d="M116.968 4.8003C115.949 3.88878 114.721 3.33259 113.485 2.78473C111.839 2.00187 110.089 1.54891 108.327 1.12212C106.271 0.705675 104.928 0.579336 102.935 1.31867C101.209 2.20252 100.034 3.62568 99.0729 5.25856C98.0729 7.19631 97.85 9.36021 97.4649 11.4686C97.3695 11.896 97.2741 12.3233 97.1786 12.7507C97.0075 13.1805 96.7671 13.5891 96.6652 14.0401C96.5686 14.4682 96.6181 14.9163 96.5908 15.3541C96.5644 15.779 96.5331 16.2036 96.5042 16.6284L96.2922 16.6141C96.3276 16.095 96.4591 14.5353 96.3897 14.0261C95.6936 8.92045 96.2312 16.3288 95.9308 11.2932C96.0575 8.91755 96.5302 6.50933 97.8212 4.46959C99.0256 2.69485 100.623 1.26921 102.651 0.481725C103.51 0.219342 103.792 0.0786973 104.69 0.0159249C105.968 -0.0734533 107.252 0.229637 108.484 0.519165C110.258 1.004 111.978 1.66637 113.645 2.44245C114.878 3.03444 116.047 3.75933 117.1 4.63438L116.968 4.8003Z" fill="#6E777A"/>
<path d="M96.1891 12.5176C95.6014 13.8829 95.2225 15.3176 94.8454 16.7506C94.5026 18.3742 94.01 19.9596 93.3644 21.4881C92.9258 22.221 92.5472 23.0121 92.0442 23.7057C91.5103 24.4422 90.8321 25.1016 90.2452 25.797C88.8954 27.0623 87.6826 28.4672 86.5201 29.9024C85.9064 30.7264 84.6743 31.57 84.1824 32.4488C83.8843 32.9813 83.8605 33.5992 83.7822 34.1822L83.5717 34.1539C83.9769 31.1814 83.4067 35.1823 83.8918 32.3282C83.9449 32.016 83.9459 31.6957 84.0107 31.3856C84.21 30.4315 84.6819 29.6224 85.2093 28.8141C86.4514 27.3787 87.8024 26.0613 89.1383 24.7134C90.3848 23.6438 91.5425 22.4194 92.3452 20.9803C93.174 19.5901 93.7855 18.0995 94.4104 16.6101C94.9514 15.2259 95.4622 13.8309 95.9907 12.4421L96.1891 12.5176Z" fill="#6E777A"/>
<path d="M82.8978 33.0645C82.8308 34.5434 82.6314 35.9709 82.1234 37.366C81.591 38.7325 80.8008 39.8509 79.5816 40.6737C78.6977 41.2471 77.7311 41.4641 76.6934 41.3594C75.5255 41.0201 74.6276 40.2633 73.9225 39.2984C72.7719 37.5418 72.8609 35.3641 72.8724 33.3481C73.0254 31.8424 72.9467 30.2728 73.3782 28.8032C73.7687 27.4731 73.9965 27.5545 74.5511 26.3326C74.7144 25.9729 74.8203 25.59 74.9549 25.2186C75.0517 24.8707 75.1485 24.5227 75.2453 24.1748L75.4501 24.2313C75.3537 24.5775 75.2573 24.9237 75.161 25.2699C75.1052 25.6565 75.0058 26.0393 74.9935 26.4297C74.9658 27.3065 75.1758 28.1798 75.152 29.0567C75.1385 29.5514 74.8769 31.4262 74.8406 31.8981C74.8037 32.3782 74.8047 32.8606 74.7867 33.3418C74.8081 34.9818 74.7773 36.7039 75.5151 38.2152C75.8969 38.8245 76.2547 39.5206 76.9894 39.7516C77.653 39.9818 78.2974 39.9114 78.9505 39.6604C80.0356 39.0671 80.9307 38.2279 81.5113 37.1255C82.074 35.8227 82.5224 34.4855 82.4905 33.0457L82.8978 33.0645Z" fill="#6E777A"/>
<path d="M73.1986 28.9833C73.716 28.027 74.1514 27.0283 74.5935 26.0354C75.1899 24.7063 76.1254 23.5814 76.948 22.3919C77.5812 21.4093 78.3596 20.5208 78.9502 19.5123C79.1936 18.9505 79.5749 18.3612 79.6155 17.7388C79.5618 17.0228 79.0801 16.4413 78.6038 15.9386C77.4043 14.8188 75.9002 14.1228 74.4947 13.3044C73.3107 12.8679 72.1515 12.0574 70.849 12.2515C69.6251 12.4395 68.8418 13.5968 68.1278 14.5052C68.0505 14.5836 66.6034 16.0488 66.5943 16.0644C66.3834 16.4294 66.1258 18.0148 66.0552 18.3947L65.8463 18.3562C65.9222 17.9495 65.9803 17.5392 66.0738 17.1362C66.1636 16.7496 66.3465 16.3834 66.3957 15.9896C66.4477 15.572 66.3813 15.148 66.3742 14.7272C66.4448 14.3356 66.5155 13.944 66.5861 13.5523C67.6108 11.5415 68.5545 10.4695 70.8863 10.1063C72.5011 10.285 74.0092 10.771 75.3374 11.7312C77.0017 12.5362 78.635 13.4945 79.9095 14.8498C80.6348 15.7921 81.5132 16.9162 81.1631 18.1776C80.8513 18.9143 80.5003 19.6311 79.9296 20.2103C79.1556 21.1123 78.3546 21.9865 77.5453 22.8565C76.6105 23.9096 75.6355 24.9543 75.0086 26.2279C74.5244 27.2128 74.0263 28.1808 73.4546 29.1185L73.1986 28.9833Z" fill="#6E777A"/>
<path d="M64.6287 16.0875C64.588 17.401 64.7465 18.7124 64.5722 20.0191C64.378 21.1062 64.0721 22.1604 63.6387 23.1757C63.0593 24.1572 62.029 24.5102 61.0359 24.9257C60.3389 25.1904 59.6016 25.35 58.9099 25.6249C58.4767 26.054 58.3631 26.95 58.1915 27.5288C58.161 27.8266 58.132 28.1246 58.1001 28.4222C58.0028 29.3279 58.0141 29.4912 57.7576 30.3852C57.5737 31.0264 57.2394 31.6218 57.0878 32.2713C57.0206 32.559 57.0337 32.8596 57.0067 33.1537C56.9838 33.4391 56.9609 33.7244 56.9379 34.0098L56.7261 33.9929C56.7489 33.7098 56.7717 33.4267 56.7945 33.1436C56.7958 32.8486 56.8384 32.5509 56.7984 32.2586C56.7062 31.5848 56.3368 30.966 56.3315 30.2721C56.1941 29.2352 56.3218 28.2262 56.5547 27.2133C56.7237 25.7561 56.9624 24.5444 58.488 24.0011C59.2116 23.9107 59.9197 23.6976 60.6306 23.5386C61.3964 23.4233 62.1319 23.1925 62.6858 22.6265C63.3186 21.8206 63.7835 20.908 64.0829 19.9279C64.3936 18.6738 64.5293 17.3882 64.3394 16.1015L64.6287 16.0875Z" fill="#6E777A"/>
<path d="M55.6239 33.0848C55.8032 35.1221 55.9087 37.1639 56.062 39.2035C56.0941 40.8753 56.3599 42.5327 56.4562 44.1987C56.6464 45.3107 56.683 46.0888 56.0869 47.0909C55.112 48.1412 53.7625 48.6639 52.4088 49.0534C51.6354 49.2404 50.8554 49.4229 50.0613 49.5004C49.771 49.5287 49.4753 49.5009 49.1877 49.5497C48.5061 49.6654 48.2956 49.8376 47.7027 50.1536C47.5043 50.2657 47.3059 50.3778 47.1075 50.4899L47.0027 50.306C47.2026 50.1931 47.4025 50.0801 47.6024 49.9672C48.1769 49.6612 48.484 49.5326 48.9958 49.1145C49.227 48.9256 49.4165 48.6899 49.6455 48.4982C50.2633 47.9811 50.9762 47.5919 51.6968 47.2393C52.598 46.788 53.5988 46.4875 54.4315 45.9306C54.5338 45.8428 54.6852 45.8015 54.753 45.6853C54.9061 45.4225 54.9211 44.504 55.0155 44.2023C55.1035 42.5435 55.3445 40.8895 55.3009 39.2229C55.3493 37.1876 55.3341 35.1519 55.1341 33.1242L55.6239 33.0848Z" fill="#6E777A"/>
<path d="M49.1991 51.1311C48.3864 52.2642 47.5637 53.3912 46.7997 54.5578C46.0331 55.6778 45.0122 56.5696 44.1258 57.5869C43.3432 58.2577 42.694 59.087 41.7991 59.6202C40.792 60.2601 39.9453 60.0388 38.9858 59.4376C37.6646 58.2637 37.2792 56.4998 37.0224 54.8283C36.9414 53.6785 36.5281 52.5244 36.5616 51.3649C36.5628 51.3218 36.7849 49.9109 36.7989 49.8212C37.0884 48.5401 36.1245 48.0878 35.1345 47.5719L35.2335 47.3849C35.5432 47.5485 35.8722 47.6801 36.1625 47.8758C36.8388 48.3316 37.2772 49.0413 37.762 49.6725C37.9157 49.9948 38.3205 50.8088 38.4137 51.1478C38.7123 52.2343 38.5994 53.419 38.8614 54.5144C39.0959 55.728 39.2475 57.0263 40.0108 58.0432C40.3675 58.4073 40.6564 58.5391 41.1701 58.3868C42.0306 58.0605 42.8216 57.5708 43.4645 56.9098C44.4822 56.0804 45.4212 55.161 46.2917 54.1792C47.2061 53.1157 48.0118 51.9769 48.8275 50.8407L49.1991 51.1311Z" fill="#6E777A"/>
<path d="M37.5643 52.0207C36.5989 51.207 35.4139 50.7294 34.182 50.4976C33.2985 50.3847 32.7274 50.2402 32.0404 50.8533C31.5302 51.5641 31.2967 52.4291 31.1819 53.2834C30.9419 54.2004 30.8572 55.1174 30.8208 56.0591C30.7949 57.1543 31.0175 58.5621 30.3427 59.5252C30.1706 59.7708 29.9059 59.9371 29.6875 60.1431C28.8665 60.8406 29.2861 60.5082 28.4297 61.1414L28.3036 60.9712C29.0911 60.3976 28.7833 60.7475 29.2461 59.9381C29.1261 58.6256 28.9569 57.3184 28.9384 55.9981C28.9685 54.9096 29.1358 53.8222 29.556 52.8097C30.0363 51.7608 30.3375 50.5878 31.3017 49.8504C32.4022 49.1258 33.2018 49.3365 34.3912 49.7296C35.6668 50.1743 36.9329 50.661 37.9573 51.5738L37.5643 52.0207Z" fill="#6E777A"/>
<path d="M28.2854 59.3005C27.1937 59.5539 26.8438 59.9936 25.7279 59.4968C24.9426 58.8526 24.5605 57.831 24.2117 56.9016C23.8005 56.1179 23.5308 55.2807 23.2349 54.4466C23.0798 53.5776 22.954 52.6879 23.0806 51.8046C23.2876 51.7008 22.9197 51.1437 22.9743 51.4134C22.9979 51.5297 23.1409 51.7533 23.0224 51.766C22.9315 51.7758 22.8414 51.7406 22.751 51.7279C21.4859 51.7693 20.4212 52.1818 19.3988 52.9072C19.1975 53.0715 18.9804 53.2182 18.7951 53.4002C18.3957 53.7922 18.0871 54.2681 17.6976 54.6699C17.0614 55.3262 16.3098 55.8391 15.5752 56.3768C15.0576 57.3609 15.2677 56.8521 14.9419 57.9022L14.7389 57.8397C15.074 56.7633 14.9069 57.3066 15.2398 56.2097C15.2513 55.8713 15.2307 55.5303 15.2742 55.1944C15.5123 53.3579 16.7621 52.1481 18.1907 51.0948C19.6429 50.1832 21.2666 49.5726 23.0117 49.758C23.229 49.7857 23.4541 49.7772 23.6635 49.841C24.6013 50.1265 25.1976 51.0078 24.8179 51.9425C24.8201 52.6539 24.7161 53.347 24.9033 54.0442C25.0077 54.8775 25.275 55.6497 25.492 56.4591C25.7223 57.1737 25.8598 57.9139 26.3005 58.5444C26.7082 59.0467 27.5948 58.6916 28.1326 58.63L28.2854 59.3005Z" fill="#6E777A"/>
<path d="M14.3228 56.881C14.0389 57.7025 13.985 58.5379 14.0346 59.3952C14.1745 60.4542 14.4173 61.5033 14.6034 62.5596C14.6532 63.2461 14.8403 63.9486 14.8127 64.6405C14.7849 65.3369 14.6086 66.0889 14.4706 66.7713C14.1242 67.5711 13.9185 68.4588 13.4311 69.193C13.1183 69.664 12.8958 69.8398 12.4909 70.2379C11.9618 70.9753 12.1331 70.5699 11.9711 71.4515L11.7621 71.4134C11.9307 70.5001 11.9051 70.9677 11.8262 70.0099C11.7639 69.3609 11.6942 69.1606 11.8222 68.525C11.9867 67.7081 12.5227 67.0425 12.7456 66.2437C12.8742 65.9584 13.1062 65.485 13.1694 65.1763C13.2097 64.9795 13.1889 64.7747 13.2142 64.5755C13.2942 63.9453 13.4209 63.3254 13.3445 62.683C13.3231 61.5751 13.1657 60.484 13.1302 59.3762C13.2113 58.4418 13.5858 57.6066 13.9774 56.7613L14.3228 56.881Z" fill="#6E777A"/>
<path d="M169.555 47.352C168.44 48.658 167.158 49.8136 165.925 51.0073C164.087 52.9693 162.04 54.7147 159.835 56.2522C158.648 57.0333 157.459 57.8478 156.158 58.4366C155.769 58.6127 155.352 58.7223 154.961 58.8923C154.289 59.1838 153.673 59.5479 153.037 59.9044L152.933 59.7201C153.454 59.4279 154.328 58.95 154.817 58.6273C155.171 58.3931 155.494 58.1132 155.851 57.883C157.031 57.1224 158.323 56.5412 159.489 55.756C161.686 54.2488 163.817 52.6608 165.759 50.8319C167.018 49.6775 168.282 48.512 169.394 47.2139L169.555 47.352Z" fill="#6E777A"/>
<path d="M170.35 46.5057C168.854 47.7858 167.552 49.3107 166.272 50.8075C165.17 52.1263 164.082 53.5045 162.769 54.6293C161.898 55.3756 161.462 55.5877 160.484 56.1853C158.998 57.1048 157.53 58.2475 155.773 58.5946C154.772 58.7923 154.427 58.7031 153.431 58.6333C152.349 59.1273 152.866 58.8756 151.876 59.3837L151.779 59.1958C152.778 58.6831 152.258 58.9364 153.344 58.4403C153.994 57.612 154.071 57.4089 154.908 56.756C156.241 55.7155 157.922 55.2614 159.387 54.4476C161.504 53.0906 163.621 51.7503 165.453 50.012C166.961 48.6681 168.391 47.2374 170.018 46.0327L170.35 46.5057Z" fill="#6E777A"/>
<path d="M152.558 57.9364C151.991 59.2291 151.552 60.5783 151.205 61.9449C150.91 62.9807 150.837 64.0189 150.867 65.0863C150.919 65.2068 150.989 65.3212 151.024 65.4476C151.062 65.5807 151.054 65.7234 151.085 65.8581C151.25 66.5662 151.558 67.2575 151.77 67.9536C152.014 69.1997 152.258 70.4678 151.944 71.7359C151.871 72.0302 151.733 72.3047 151.628 72.5891C150.72 74.4284 148.899 75.5384 147.164 76.5164C145.813 77.2663 144.257 77.8617 142.696 77.3654C142.297 77.2387 141.957 76.9712 141.573 76.8057C141.243 76.6637 140.896 76.5651 140.558 76.4448C139.244 76.1371 139.897 76.3329 138.6 75.8513L138.674 75.6532C139.927 76.1218 139.294 75.9514 140.572 76.1752C140.889 76.0887 141.231 76.0671 141.522 75.9156C141.839 75.7504 142.067 75.4515 142.359 75.2451C143.368 74.5316 144.545 74.1622 145.679 73.7026C146.924 73.1073 148.298 72.6003 149.15 71.4664C149.293 71.2488 149.53 70.9179 149.612 70.6688C149.836 69.9803 149.686 69.1487 149.562 68.4639C149.476 67.9014 149.355 67.3581 149.224 66.8045C149.137 66.4366 148.996 66.0768 148.967 65.7C148.952 65.5028 148.994 65.3053 149.007 65.108C149.006 63.839 149.443 62.6569 150.012 61.5301C150.611 60.2012 151.192 58.8645 151.862 57.5685L152.558 57.9364Z" fill="#6E777A"/>
<path d="M140.129 74.4725C139.183 74.2721 138.304 73.8715 137.394 73.5644C136.384 73.1204 135.712 72.2993 135.073 71.4376C134.62 71.0828 134.228 70.538 133.7 70.2808C133.433 70.1511 133.131 70.1119 132.854 70.007C131.796 69.819 130.669 69.7798 129.612 69.9894C128.496 70.1841 127.457 70.6961 126.407 71.113C125.313 71.3229 124.472 72.4937 123.397 72.7292C123.136 72.7864 122.863 72.738 122.595 72.7425C121.385 72.3565 121.22 72.1107 120.324 72.9984L120.174 72.8484C120.958 72.074 121.05 71.642 121.012 70.4889C121.145 70.2151 121.225 69.9092 121.41 69.6675C121.576 69.4502 121.821 69.3038 122.043 69.1433C123.004 68.4485 124.131 68.167 125.197 67.6793C125.656 67.538 126.106 67.3645 126.573 67.2539C127.535 67.0263 128.537 67.0258 129.515 66.9312C130.975 67.0692 132.438 67.1711 133.798 67.781C134.995 68.314 135.982 69.1878 136.645 70.3252C137.127 71.0253 137.501 71.8038 138.103 72.4136C138.741 73.064 139.572 73.4853 140.348 73.953L140.129 74.4725Z" fill="#6E777A"/>
<path d="M120.216 69.8972C120.143 70.0723 120.085 70.2543 119.997 70.4227C119.887 70.6345 119.729 70.8198 119.624 71.0346C119.141 72.031 118.844 73.1194 118.629 74.1984C118.273 75.6935 118.487 77.2447 118.279 78.7505C118.252 78.9698 118.207 79.1876 118.196 79.4083C118.053 82.2818 118.377 77.9505 118.201 80.742C118.156 81.462 118.103 82.1339 118.132 82.858C118.037 84.5767 117.538 86.19 116.74 87.7109C116.104 89.1637 114.82 90.584 113.51 91.4753C113.139 91.628 112.399 91.9661 111.994 91.9961C111.682 92.0193 111.371 91.9337 111.06 91.9011C110.189 91.8098 109.397 91.5644 108.528 91.469L108.552 91.2589C108.811 91.2881 109.072 91.3852 109.33 91.3467C109.54 91.3154 110.438 90.8554 110.615 90.6801C110.773 90.5241 110.838 90.2961 110.971 90.1193C111.197 89.8206 111.518 89.6 111.7 89.2643C113.155 87.7847 110.99 89.9478 112.612 88.4614C113.266 87.8627 113.706 87.0821 114.284 86.4206C114.929 85.2212 115.467 83.9806 115.586 82.6083C115.759 81.8973 115.834 81.2057 115.949 80.4864C116.177 79.063 115.984 80.5493 116.281 79.1579C116.329 78.9328 116.344 78.7019 116.375 78.4739C116.618 76.9135 117.187 75.4155 117.616 73.9003C117.943 73.0695 118.257 72.2268 118.741 71.4694C118.887 71.2413 119.08 71.0449 119.222 70.8145C120.204 69.2216 118.946 70.9729 119.883 69.7094L120.216 69.8972Z" fill="#6E777A"/>
<path d="M112.379 91.2174C111.752 91.1845 111.151 91.4195 110.537 91.4797C110.215 91.5113 109.889 91.4881 109.566 91.5102C108.498 91.6558 107.558 91.2359 106.613 90.8195C105.572 90.2293 104.93 89.2573 104.177 88.3697C103.486 87.4972 102.955 86.5674 102.446 85.5835C102.348 85.3883 102.251 85.193 102.153 84.9978C102.099 84.8184 102.069 84.63 101.991 84.4597C101.92 84.3044 101.789 84.1819 101.709 84.0311C101.472 83.5871 101.366 83.1269 101.106 82.689C101.066 82.5281 101.048 82.3604 100.987 82.2064C100.92 82.0377 100.803 81.8924 100.724 81.7289C100.452 81.1631 100.246 80.5631 99.9847 79.9903C99.7084 79.3151 99.0072 78.962 98.4183 78.5782C98.2374 78.5068 98.0581 78.4309 97.8754 78.364C97.4079 78.193 96.9247 78.0728 96.4914 77.8152C95.6613 77.3217 95.7015 77.1541 94.9288 76.5533C94.6676 76.3502 94.3803 76.1828 94.1061 75.9976C93.8296 75.967 93.5532 75.9363 93.2767 75.9057L93.3002 75.6956C93.5772 75.7262 93.8543 75.7569 94.1313 75.7876C95.1257 75.4369 96.1532 74.8801 97.2267 74.8289C98.2365 74.7807 99.1756 75.2113 100.069 75.6097C101.589 76.3615 102.357 77.1001 103.167 78.58C103.441 79.202 103.669 79.8657 103.848 80.5233C103.89 80.6784 103.895 80.8444 103.955 80.9935C104.019 81.151 104.129 81.2857 104.216 81.4318C104.34 81.9578 104.622 82.3792 104.765 82.8948C104.814 83.0725 104.799 83.2638 104.849 83.4415C104.891 83.5932 104.974 83.7305 105.037 83.875C105.078 84.0336 105.119 84.1922 105.16 84.3509C105.505 85.2383 105.969 86.0859 106.421 86.9233C106.761 87.6616 107.203 88.4165 107.824 88.9521C108.339 89.4615 108.945 89.8274 109.654 90.0001C110.542 90.1822 111.471 90.239 112.379 90.225L112.379 91.2174Z" fill="#6E777A"/>
<path d="M97.6549 75.7342C96.4824 75.1645 95.235 74.7445 93.9409 74.5758C93.105 74.4535 92.275 74.4872 91.4346 74.4751C90.5799 74.4658 89.732 74.356 88.8828 74.2717C88.3199 74.2404 87.8129 73.9396 87.3219 73.6919C87.201 73.6309 87.056 73.6116 86.9507 73.5265C86.8266 73.4262 86.7527 73.2767 86.6538 73.1517C85.8862 72.5584 85.2158 71.7896 84.6039 71.0321C83.7427 70.328 82.7934 69.7372 81.8164 69.2037C80.763 68.6282 79.5987 68.4836 78.4332 68.3043C77.3946 68.2212 76.3309 68.1064 75.2962 68.2704C75.1909 68.2428 75.0596 68.2619 74.9802 68.1878C74.7882 68.0086 74.4361 66.5974 73.8306 67.3412C73.6746 67.5328 73.7179 67.8215 73.6616 68.0617L73.4549 68.0123C73.5189 67.7533 73.6062 67.4988 73.6468 67.2351C73.8518 65.9051 73.6155 64.6501 75.3277 64.3854C76.5547 64.5866 77.818 64.4672 79.0426 64.7218C80.567 64.9953 82.0004 65.5785 83.3785 66.2762C84.6482 66.931 85.8217 67.7174 86.8451 68.7177C87.5786 69.2864 88.2507 69.9685 88.7962 70.7164C88.8678 70.7403 88.9528 70.7401 89.0112 70.7879C89.0988 70.8595 89.0823 70.9751 89.1578 71.0501C89.3037 71.1949 89.4966 71.2243 89.67 71.3304C90.3433 71.6442 91.0276 71.9403 91.7587 72.0955C92.6754 72.3414 93.6041 72.5434 94.4756 72.9252C95.7058 73.5726 97.0289 74.0073 98.2052 74.7636L97.6549 75.7342Z" fill="#6E777A"/>
<path d="M76.4114 68.4715C76.3922 69.0183 76.337 69.7751 76.4788 70.3078C76.5572 70.6024 76.7446 70.8569 76.8756 71.1324C77.1692 71.657 77.7704 72.032 78.2956 72.3057C79.3337 73.1343 80.4174 73.9005 81.2325 74.9689C81.57 75.3733 82.0207 75.7375 82.323 76.1687C82.6783 76.6755 82.8634 77.337 83.0846 77.9067C83.0603 79.335 83.1139 80.9532 82.2591 82.1801C82.0451 82.4872 81.762 82.7405 81.5135 83.0207C80.8526 83.4496 80.1105 83.8177 79.6677 84.5113C79.6224 84.5823 79.0952 86.1663 79.0544 86.2875L78.853 86.2204C78.9487 85.9356 79.0422 85.65 79.1401 85.366C79.2472 85.0553 79.4229 84.7616 79.468 84.4362C79.5885 83.5664 79.323 82.9589 79.0951 82.1365C79.0535 81.4739 78.968 80.9771 79.1108 80.3301C79.1538 80.135 79.282 79.966 79.331 79.7723C79.4259 79.3973 79.4331 78.9419 79.3442 78.5663C79.5914 77.9723 79.1447 77.4741 78.8337 76.9813C78.0369 76.1532 77.3821 75.1673 76.4197 74.5117C76.3033 74.372 76.1868 74.2322 76.0704 74.0925C75.9401 73.9704 75.7978 73.86 75.6797 73.7264C75.1657 73.1452 74.934 72.432 74.6641 71.723C74.505 70.4997 74.4104 69.2408 74.9807 68.1044L76.4114 68.4715Z" fill="#6E777A"/>
<path d="M78.2805 85.4994C77.7466 85.9897 77.1434 86.4989 76.4586 86.7706C76.2006 86.873 75.3683 87.0326 75.1034 87.0873C73.8678 87.2623 72.5695 87.1381 71.3681 86.8049C70.3768 86.682 69.4278 86.4199 68.4263 86.3653C67.2865 86.1219 66.0193 85.7625 65.197 84.8859C64.9561 84.629 64.7705 84.3259 64.5572 84.046C63.792 82.721 64.3323 83.2683 63.0938 82.5422C62.8 82.37 62.5104 82.1908 62.2187 82.0151L62.3287 81.8342C63.5346 82.5609 63.7184 83.0299 65.2019 82.7129C65.9531 82.6707 66.3026 82.594 67.024 82.7533C67.7485 82.9134 68.4431 83.2896 69.1548 83.4958C70.0888 83.9166 71.0543 84.1901 71.9781 84.6242C72.9665 84.8979 73.8804 85.3861 74.9322 85.3954C75.8532 85.4303 76.7824 85.336 77.5208 84.7338L78.2805 85.4994Z" fill="#6E777A"/>
<path d="M62.204 83.6409C61.5362 82.6883 60.6633 81.8738 59.7779 81.1212C58.855 80.262 58.095 79.2427 57.432 78.173C56.7698 77.2676 55.9673 76.4619 55.1845 75.6542C54.8617 75.2186 54.361 75.0119 53.9453 74.6999C53.8091 74.5978 53.7116 74.4506 53.5762 74.3476C53.3259 74.1572 53.0366 74.0241 52.7685 73.8595C52.0777 73.4266 51.3614 73.3429 50.5649 73.3514C50.3666 73.3413 50.1672 73.2992 49.9698 73.3211C49.1723 73.4099 48.3789 73.7674 47.6177 73.9874C46.7696 74.2325 46.3491 74.276 45.4661 74.4248C44.5663 74.4979 43.8434 74.4964 42.9814 74.8011C42.6123 74.9316 42.2868 75.1625 41.9314 75.3265C41.5799 75.4887 41.2183 75.6284 40.8618 75.7794L40.7786 75.5847C41.1671 75.4205 42.5355 74.8681 42.8778 74.6166C43.4599 74.1888 44.1379 73.2269 44.5622 72.6787C44.8935 72.3786 45.1963 72.044 45.5561 71.7783C47.1028 70.6356 48.9163 70.4686 50.7598 70.3482C52.0559 70.4849 53.2789 70.8365 54.2704 71.7216C55.9473 72.9978 53.6092 71.185 55.1306 72.4698C55.2759 72.5924 55.4558 72.6717 55.5951 72.801C56.0251 73.2003 56.342 73.7379 56.8205 74.0949C57.7082 75.0237 58.4261 76.062 59.0371 77.1885C59.6557 78.1889 60.0961 79.2907 60.8357 80.2189C61.4762 81.2469 62.2091 82.2148 62.8293 83.2558L62.204 83.6409Z" fill="#6E777A"/>
<path d="M42.9758 73.1859C42.0739 73.9762 40.8533 74.3218 39.6996 74.5631C38.4341 74.8871 37.1362 74.7836 35.8581 74.6029C34.9879 74.4769 34.1459 74.3518 33.2721 74.2615C32.5569 74.2265 31.9953 74.7701 31.5012 75.2198C30.7035 75.924 29.7679 76.7526 28.6746 76.947C28.1561 77.0392 26.9053 76.9317 26.3937 76.9006C25.31 76.6978 24.2229 76.8674 23.136 76.9312L23.1236 76.7201C24.2215 76.6563 25.1895 76.6589 26.052 75.8668C26.3065 75.6346 26.571 75.4129 26.8155 75.1703C27.0335 74.954 27.2089 74.696 27.4381 74.4915C28.1063 73.8953 29.0103 73.5697 29.6709 72.9565C30.8584 72.088 31.9961 71.4343 33.5209 71.6085C34.5017 71.6932 35.4225 71.9855 36.349 72.3072C37.3809 72.6112 38.416 72.8944 39.5031 72.9098C40.5531 72.8988 41.5738 72.7895 42.5655 72.4278L42.9758 73.1859Z" fill="#6E777A"/>
<path d="M26.8165 77.0874C25.2124 76.9773 23.5835 76.9687 21.9908 77.1989C20.5363 77.2656 19.1156 77.5706 17.6646 77.6737C16.1702 77.6406 14.8153 77.0444 13.6563 76.1375C12.6597 75.2549 11.3328 73.6738 11.8622 72.2069C11.9855 71.8653 12.2539 71.5944 12.4498 71.2882C12.8773 70.3118 12.7384 70.7972 12.9001 69.8419L13.1124 69.8311C13.3664 70.7131 13.1554 70.2945 13.7866 71.0654C14.0613 71.2276 14.3589 71.3565 14.6107 71.5522C15.3109 72.0964 15.2824 73.0505 15.8485 73.6933C16.0705 73.9341 16.2392 74.2216 16.4705 74.4536C16.8615 74.8459 17.4048 75.0895 17.9143 75.2827C19.2219 75.7406 20.6298 75.7297 21.9998 75.7615C23.6316 76.0123 25.2857 76.1061 26.9094 76.4292L26.8165 77.0874Z" fill="#6E777A"/>
<path d="M131.896 48.144C131.408 48.1448 130.261 48.1419 129.872 48.168C129.329 48.2045 128.791 48.3002 128.247 48.3366C127.576 48.3814 126.903 48.3789 126.231 48.4113C123.999 48.519 123.321 48.588 121.015 48.7636C113.307 49.3594 105.585 49.7056 97.8744 50.2739C93.4062 50.3004 89.0163 51.1756 84.5827 51.5912C81.7616 51.8556 78.8643 51.8311 76.0779 52.4423C74.7784 52.7273 73.5403 53.2407 72.2716 53.6399C67.7334 55.4082 69.9253 54.473 65.6885 56.4285L65.5992 56.2367C69.8522 54.2742 67.6519 55.2127 72.2075 53.4383C73.4809 53.0378 74.7626 52.6633 76.0274 52.2369C79.151 51.1838 81.0506 50.2758 84.2986 49.5491C88.7251 48.5586 93.2666 48.6319 97.7537 48.1517C105.49 47.8493 113.233 47.6156 120.975 47.6078C124.628 47.6409 128.281 47.5257 131.923 47.8231L131.896 48.144Z" fill="#6E777A"/>
<path d="M76.2719 52.0661C73.9798 53.7276 71.5313 55.1436 69.1189 56.6221C66.9117 57.9594 64.6242 59.156 62.3743 60.4195C61.4701 60.9273 60.5848 61.4696 59.6635 61.9461C57.1212 63.261 55.905 63.6922 53.2243 64.7978C48.2238 66.6593 43.2098 68.6612 37.9708 69.7782C34.5932 70.4984 33.3073 70.5073 29.8825 70.81C26.1088 70.5629 22.3285 70.9419 18.5548 70.838C17.4193 70.8068 16.288 70.6861 15.1547 70.6101L15.169 70.3991C17.5145 70.5568 19.7571 70.7947 22.1148 70.5915C25.6073 70.2904 26.1363 69.8844 29.4675 68.7589C31.7879 68.0151 34.7236 67.0541 37.0653 66.3833C42.0655 64.9511 47.1654 63.8207 51.9885 61.8271C57.4315 59.5857 62.9114 57.4348 68.241 54.9339C70.8369 53.8349 73.357 52.5708 75.9438 51.46L76.2719 52.0661Z" fill="#6E777A"/>
<path d="M25.395 68.6158C23.8913 69.2107 22.2529 69.3196 20.6671 69.5431C17.6473 69.9687 19.7182 69.8078 16.5027 69.9268C12.3778 70.2286 15.8795 70.0485 11.6645 70.0451C9.37605 70.0433 8.88952 70.2996 6.63633 69.6991C4.41788 69.1079 4.00177 68.6303 2.10208 67.4079C1.40141 67.2597 0.700665 67.1114 -4.8426e-05 66.9632L0.0441816 66.7563C0.742273 66.9041 1.44038 67.0518 2.13847 67.1996C4.14048 66.6988 4.85142 66.4241 6.91217 66.2886C9.69505 66.1056 8.97837 66.3726 11.7482 66.5703C20.5123 67.1958 7.98522 66.0261 16.4891 66.8586C21.4536 67.003 15.9346 66.7864 20.5541 67.1295C22.1251 67.2462 23.7242 67.136 25.2786 67.4327L25.395 68.6158Z" fill="#6E777A"/>
<path d="M114.132 15.7448C114.014 16.0329 113.922 16.3328 113.779 16.6092C112.712 18.6662 111.357 20.6048 110.129 22.5644C107.176 27.2781 109.316 24.0888 105.893 28.9706C103.261 32.5998 100.695 36.2741 97.673 39.6008C95.806 41.6563 93.9383 43.6144 91.5311 45.0619C90.4928 45.6862 89.3218 46.0595 88.2172 46.5583C85.0225 48.7757 86.6037 47.7702 83.4905 49.601L83.3824 49.4189C86.4783 47.5993 84.9052 48.5991 88.0845 46.3931C88.7786 45.4616 89.4325 44.4991 90.1667 43.5986C92.0546 41.2826 93.4901 39.9687 95.5336 37.752C98.5196 34.5129 101.426 31.1878 104.081 27.6723C110.671 18.84 102.61 29.5735 108.738 21.6175C110.145 19.7915 111.443 17.8902 112.805 16.0341C112.982 15.7925 113.187 15.5728 113.379 15.3421L114.132 15.7448Z" fill="#6E777A"/>
<path d="M90.0212 50.3508C92.3652 50.9979 94.3097 52.5229 96.1469 54.0485C97.8815 55.4887 99.2534 56.8038 100.914 58.3415C102.699 60.101 104.093 61.3481 105.612 63.3508C106.276 64.2257 106.822 65.183 107.423 66.1024C109.409 69.1462 108.717 68.0478 110.484 71.0508L110.301 71.1576C109.037 69.0078 108.762 68.3144 107.063 66.3927C106.349 65.586 105.53 64.8786 104.774 64.1114C103.988 63.3141 103.216 62.5032 102.437 61.6992C101.638 60.8926 100.839 60.086 100.039 59.2795C97.8661 57.279 95.6861 55.3148 93.2914 53.575C92.6541 53.1121 91.3465 52.2315 90.5457 51.8487C90.3132 51.7376 90.0574 51.6829 89.8132 51.5999L90.0212 50.3508Z" fill="#6E777A"/>
<path d="M127.227 48.9876C128.422 50.8745 126.627 48.0745 128.381 50.6464C128.695 51.1077 128.96 51.6023 129.287 52.0552C130.65 53.9455 132.195 55.739 133.67 57.543C134.992 59.794 136.634 61.8275 138.243 63.8757L138.075 64.006C136.462 61.9519 134.8 59.9498 132.77 58.2771C132.251 57.6519 130.126 55.104 129.596 54.407C129.17 53.8455 128.791 53.2499 128.378 52.6783C128.04 52.2094 127.657 51.7717 127.344 51.2855C127.072 50.8633 126.638 49.9093 126.394 49.3906L127.227 48.9876Z" fill="#6E777A"/>
<path d="M59.0286 62.1357C61.6011 64.6455 63.2298 67.9175 64.7003 71.1427C66.2084 74.0719 65.484 72.6117 66.8763 75.5219L66.6845 75.6129C65.2961 72.7106 66.0183 74.1665 64.5152 71.2466C62.5409 68.3841 60.6812 65.4289 58.3871 62.8025L59.0286 62.1357Z" fill="#6E777A"/>
<path d="M55.8043 59.5389C57.0748 57.8338 58.588 56.3283 59.8945 54.6467C61.4685 52.6681 62.8831 50.5051 63.9555 48.2111C64.2685 47.5415 64.4908 46.8311 64.8223 46.1703C65.1799 45.4573 65.6201 44.7883 66.019 44.0972C67.4667 42.131 67.7179 39.8723 68.0818 37.5502L68.2918 37.5828C67.9272 39.9081 67.3938 42.2214 67.6017 44.5938C67.5099 45.452 67.5255 46.3285 67.3265 47.1686C67.1376 47.966 66.7776 48.7149 66.4478 49.4655C65.2405 52.213 63.7456 54.2228 61.5828 56.2875C59.9123 57.6542 58.2247 59.0725 56.3195 60.1014L55.8043 59.5389Z" fill="#6E777A"/>
<path d="M58.0617 62.0184C60.7714 62.9686 62.8555 64.7382 64.9682 66.606C66.8215 69.1829 65.587 67.2619 67.0425 70.1175C69.1348 74.2223 66.8792 69.4691 68.826 73.6571L68.6331 73.7458C68.0506 72.4898 67.6911 71.4174 66.6811 70.4118C66.6468 70.3778 63.6295 68.2216 63.5659 68.1761C61.6448 66.4749 59.6426 64.8251 57.4941 63.4168L58.0617 62.0184Z" fill="#6E777A"/>
</g>
<defs>
<clipPath id="clip0_214_82">
<rect width="92" height="171" fill="white" transform="translate(171) rotate(90)"/>
</clipPath>
</defs>
</svg>
